# xmcd
#
# Track frame offsets:
#	150
#	10236
#	18939
#	29844
#	41272
#	52426
#	62352
#	71888
#	81379
#	89146
#	98635
#	105272
#
# Disc length: 1535 seconds
#
# Revision: 1
# Processed by: cddbd v1.5.1PL0 Copyright (c) Steve Scherf et al.
# Submitted via: audiograbber 1.83.01
#
DISCID=9e05fd0c
DTITLE=Fleur Gire - Chansons Portraits
DYEAR=2005
DGENRE=Ballad
TTITLE0=La mariée
TTITLE1=Deguise en chien
TTITLE2=Snack bar
TTITLE3=Residence securisee
TTITLE4=Charmant prince
TTITLE5=Paris mache
TTITLE6=La phototherapie
TTITLE7=Laurence
TTITLE8=Franco francaise
TTITLE9=Petit Victor
TTITLE10=Melodie academique
TTITLE11=Teutatenal
EXTD=
EXTT0=
EXTT1=
EXTT2=
EXTT3=
EXTT4=
EXTT5=
EXTT6=
EXTT7=
EXTT8=
EXTT9=
EXTT10=
EXTT11=
PLAYORDER=
